<svg width="72" height="72" viewBox="0 0 72 72" fill="none" xmlns="http://www.w3.org/2000/svg">
<circle cx="44" cy="44" r="28" fill="#2C6269"/>
<path d="M28.4961 0C34.1568 5.09576e-05 38.7627 4.60604 38.7627 10.2666V14.9336L38.9541 14.9385C40.9244 15.0384 42.4961 16.6723 42.4961 18.667C42.4959 20.7257 40.8216 22.4004 38.7627 22.4004H38.5479C38.259 26.0671 36.1965 29.2713 33.1621 31.0977V32.667H36.1123C38.6033 32.6672 40.629 34.6934 40.6289 37.1846C40.6296 37.2541 40.6256 37.3233 40.623 37.3926L40.748 37.4014C44.9639 37.9624 48.0956 41.5429 48.0957 45.7334V56H46.2295V45.7334C46.2295 42.4733 43.7935 39.6891 40.5615 39.2578L40.1533 39.2314C40.0704 39.3975 39.9796 39.5604 39.876 39.7168L35.0293 46.9502V56H33.1621V42.9521C31.558 44.1413 29.6061 44.7998 27.5625 44.7998C25.5184 44.7998 23.567 44.1412 21.9629 42.9521V56H20.0957V46.9502L15.251 39.7197C15.1466 39.5625 15.0549 39.3991 14.9717 39.2324L14.5029 39.2637C11.3324 39.6893 8.89648 42.4733 8.89648 45.7334V56H7.0293V45.7334C7.0293 41.5428 10.1614 37.9637 14.3164 37.4072L14.501 37.3936C14.4982 37.3208 14.4944 37.248 14.4951 37.1748C14.4951 34.6931 16.5216 32.667 19.0127 32.667H21.9629V31.1289C19.2942 29.5483 17.3035 26.8622 16.7207 23.5771C16.6629 23.2506 16.6188 22.9211 16.5908 22.5908L16.5762 22.4004H16.3623C14.3036 22.4002 12.6301 20.7256 12.6299 18.667C12.6299 16.6082 14.3035 14.9338 16.3623 14.9336H16.3633L16.3623 10.5674C14.1575 9.51688 12.63 7.26769 12.6299 4.66699C12.6299 4.1519 13.0474 3.73351 13.5625 3.7334H14.0635C13.7444 3.1837 13.5625 2.54561 13.5625 1.86621V0.933594C13.5625 0.418437 13.9809 0 14.4961 0H28.4961ZM18.2295 46.667C18.7445 46.667 19.1629 47.0837 19.1631 47.5996V53.2002C19.163 53.7162 18.7445 54.1328 18.2295 54.1328C17.7144 54.1328 17.296 53.7162 17.2959 53.2002V47.5996C17.2961 47.0836 17.7145 46.667 18.2295 46.667ZM36.8965 46.667C37.4123 46.6673 37.829 47.0838 37.8291 47.5996V53.2002C37.829 53.7161 37.4123 54.1326 36.8965 54.1328C36.3804 54.1328 35.963 53.7162 35.9629 53.2002V47.5996C35.9631 47.0836 36.3805 46.667 36.8965 46.667ZM33.1621 35.6719C33.1584 36.1376 33.4895 36.5289 33.9375 36.6055H34.0957C34.6118 36.6055 35.0294 37.0229 35.0293 37.5391V43.5967L38.3232 38.6807C38.6152 38.2412 38.7683 37.7262 38.7627 37.1934C38.7627 35.7235 37.5737 34.5334 36.1123 34.5332H33.1621V35.6719ZM19.0137 34.5332C17.5521 34.5332 16.3633 35.7223 16.3633 37.1836C16.3577 37.725 16.5107 38.2412 16.8047 38.6826L20.0957 43.5947V37.5391C20.0957 37.0229 20.5141 36.6055 21.0293 36.6055H21.1885C21.6362 36.5287 21.9657 36.1376 21.9629 35.6787V34.5332H19.0137ZM31.2959 31.999C30.7238 32.2117 30.1286 32.381 29.5137 32.5C28.8623 32.6157 28.2125 32.6719 27.5732 32.6719C26.2729 32.6719 25.0094 32.44 23.8291 32.0117V35.6719C23.8374 36.8823 23.0679 37.9369 21.9629 38.3262V40.4463C23.3939 42.0298 25.4157 42.9335 27.5625 42.9336C29.7094 42.9336 31.7311 42.0295 33.1621 40.4443V38.3252C32.0565 37.9359 31.2868 36.8808 31.2959 35.6641V31.999ZM21.8926 11.2002C21.4785 14.0384 19.258 15.7497 18.2295 16.4014V19.5996L18.4502 22.4404C18.4726 22.7072 18.5091 22.9795 18.5566 23.25C19.4395 28.221 24.2038 31.547 29.1729 30.665C33.3401 29.8587 36.4427 26.3235 36.7021 22.0713L36.8984 19.5273L36.8975 16.4023C35.8696 15.7515 33.6467 14.04 33.2324 11.2002H21.8926ZM31.0225 23.9932C29.642 25.3726 27.8061 26.1328 25.8545 26.1338H25.6963V24.2666H25.8545C27.3076 24.2656 28.6746 23.7004 29.7031 22.6729L31.0225 23.9932ZM28.4287 17.1475L27.0742 20.5332H28.4961V22.4004H25.6963C25.3864 22.4004 25.0964 22.246 24.9229 21.9902C24.7494 21.7345 24.7143 21.4075 24.8291 21.1201L26.6953 16.4541L28.4287 17.1475ZM16.3623 16.7998C15.333 16.8 14.4961 17.6377 14.4961 18.667C14.4963 19.6962 15.3332 20.533 16.3623 20.5332H16.4316L16.3652 19.6719L16.3643 16.7998H16.3623ZM38.7627 19.5996L38.6914 20.5332H38.7627C39.7921 20.5332 40.6297 19.6963 40.6299 18.667C40.6299 17.6374 39.7921 16.7998 38.7627 16.7998V19.5996ZM21.9629 15.8662C22.9938 15.8663 23.8291 16.7025 23.8291 17.7334C23.829 18.7642 22.9937 19.5995 21.9629 19.5996C20.932 19.5996 20.0958 18.7643 20.0957 17.7334C20.0957 16.7024 20.9319 15.8662 21.9629 15.8662ZM33.1631 15.8662C34.1939 15.8664 35.0293 16.7026 35.0293 17.7334C35.0292 18.7642 34.1938 19.5994 33.1631 19.5996C32.1322 19.5996 31.296 18.7643 31.2959 17.7334C31.2959 16.7024 32.1321 15.8662 33.1631 15.8662ZM35.1309 11.2002C35.4027 12.4557 36.1833 13.4148 36.8965 14.0596V11.2002H35.1309ZM18.2295 14.0576C18.9424 13.4128 19.7235 12.4549 19.9951 11.2002H19.1631C18.8462 11.2002 18.5345 11.1747 18.2295 11.1309V14.0576ZM15.4297 1.86719C15.4299 2.89648 16.2667 3.73334 17.2959 3.7334C17.8111 3.7334 18.2295 4.15184 18.2295 4.66699C18.2293 5.18202 17.811 5.59961 17.2959 5.59961H14.5898C15.023 7.72662 16.9101 9.33301 19.1631 9.33301H36.8438C36.3779 5.1388 32.8126 1.86723 28.4961 1.86719H15.4297Z" fill="#79C8C7"/>
</svg>
